<svg width="936" height="202" viewBox="0 0 936 202" fill="none" xmlns="http://www.w3.org/2000/svg">
<rect x="16" y="16" width="301.333" height="170" fill="#00ED64"/>
<path d="M176.255 57.4126C171.622 51.867 167.632 46.2348 166.817 45.065C166.731 44.9783 166.603 44.9783 166.517 45.065C165.702 46.2348 161.712 51.867 157.079 57.4126C117.312 108.579 163.342 143.109 163.342 143.109L163.728 143.369C164.072 148.698 164.93 156.367 164.93 156.367H166.646H168.362C168.362 156.367 169.22 148.741 169.563 143.369L169.949 143.066C169.992 143.109 216.022 108.579 176.255 57.4126ZM166.646 142.373C166.646 142.373 164.586 140.596 164.029 139.687V139.6L166.517 83.8841C166.517 83.7108 166.774 83.7108 166.774 83.8841L169.262 139.6V139.687C168.705 140.596 166.646 142.373 166.646 142.373Z" fill="#001E2B"/>
<rect x="317.334" y="16" width="301.333" height="170" fill="#F5F7FA"/>
<path d="M477.589 57.4126C472.956 51.867 468.966 46.2348 468.151 45.065C468.065 44.9783 467.937 44.9783 467.851 45.065C467.036 46.2348 463.046 51.867 458.413 57.4126C418.646 108.579 464.676 143.109 464.676 143.109L465.062 143.369C465.406 148.698 466.264 156.367 466.264 156.367H467.98H469.696C469.696 156.367 470.554 148.741 470.897 143.369L471.283 143.066C471.326 143.109 517.356 108.579 477.589 57.4126ZM467.98 142.373C467.98 142.373 465.92 140.596 465.363 139.687V139.6L467.851 83.8841C467.851 83.7108 468.108 83.7108 468.108 83.8841L470.596 139.6V139.687C470.039 140.596 467.98 142.373 467.98 142.373Z" fill="#00684A"/>
<rect x="618.666" y="16" width="301.333" height="170" fill="#001E2B"/>
<path d="M778.921 57.4126C774.288 51.867 770.298 46.2348 769.483 45.065C769.397 44.9783 769.269 44.9783 769.183 45.065C768.368 46.2348 764.378 51.867 759.745 57.4126C719.978 108.579 766.008 143.109 766.008 143.109L766.395 143.369C766.738 148.698 767.596 156.367 767.596 156.367H769.312H771.028C771.028 156.367 771.886 148.741 772.229 143.369L772.615 143.066C772.658 143.109 818.688 108.579 778.921 57.4126ZM769.312 142.373C769.312 142.373 767.253 140.596 766.695 139.687V139.6L769.183 83.8841C769.183 83.7108 769.44 83.7108 769.44 83.8841L771.928 139.6V139.687C771.371 140.596 769.312 142.373 769.312 142.373Z" fill="#00ED64"/>
</svg>
