<svg xmlns="http://www.w3.org/2000/svg" viewBox="0 0 177.74 177.78"><defs><style>.cls-1{fill:#037fff;}</style></defs><g id="Layer_2" data-name="Layer 2"><g id="Layer_1-2" data-name="Layer 1"><path class="cls-1" d="M152.42,2.45a8.29,8.29,0,0,1,11.77,0L175.3,13.56a8.29,8.29,0,0,1,0,11.76L145.09,55.53l13.54,13.54a8.33,8.33,0,0,1-5.9,14.23h-50A8.32,8.32,0,0,1,94.44,75V25a8.34,8.34,0,0,1,14.24-5.9l13.54,13.54ZM25,94.44H75a8.31,8.31,0,0,1,8.33,8.33v50a8.34,8.34,0,0,1-14.23,5.91L55.56,145.13l-30.2,30.2a8.3,8.3,0,0,1-11.77,0L2.45,164.22a8.29,8.29,0,0,1,0-11.77l30.2-30.2L19.11,108.68A8.34,8.34,0,0,1,25,94.44Z"/></g></g></svg>