<svg xmlns="http://www.w3.org/2000/svg" viewBox="0 0 97.38 97.38"><defs><style>.cls-1{fill:#ffab03;}</style></defs><g id="Layer_2" data-name="Layer 2"><g id="Layer_1-2" data-name="Layer 1"><g id="Group_1" data-name="Group 1"><path id="pen-to-square-regular" class="cls-1" d="M84.53,10.54l2.32,2.32a4.57,4.57,0,0,1,0,6.47v0L81.27,25l-8.84-8.84L78,10.54a4.57,4.57,0,0,1,6.48,0l0,0ZM40.21,48.35,65.93,22.61l8.84,8.84L49,57.17a4.56,4.56,0,0,1-2,1.18L35.82,61.56,39,50.34a4.49,4.49,0,0,1,1.19-2ZM71.51,4,33.69,41.83a13.73,13.73,0,0,0-3.5,6L24.71,67a4.6,4.6,0,0,0,5.69,5.69l19.16-5.48a13.83,13.83,0,0,0,6-3.5l37.82-37.8a13.79,13.79,0,0,0,0-19.51L91,4A13.79,13.79,0,0,0,71.51,4ZM16.87,11.51A16.87,16.87,0,0,0,0,28.38V80.51A16.87,16.87,0,0,0,16.87,97.38H69A16.87,16.87,0,0,0,85.87,80.51V59.05a4.6,4.6,0,0,0-9.2,0V80.51A7.67,7.67,0,0,1,69,88.18H16.87A7.67,7.67,0,0,1,9.2,80.52h0V28.38a7.67,7.67,0,0,1,7.66-7.67H38.34a4.6,4.6,0,0,0,0-9.2Z"/></g></g></g></svg>