<svg xmlns="http://www.w3.org/2000/svg" viewBox="0 0 133.51 133.49"><defs><style>.cls-1{fill:#17234c;}</style></defs><g id="Layer_2" data-name="Layer 2"><g id="Layer_1-2" data-name="Layer 1"><g id="Group_1" data-name="Group 1"><path id="pen-to-square-regular" class="cls-1" d="M115.88,14.42l3.18,3.18a6.27,6.27,0,0,1,0,8.87l0,0-7.64,7.67L99.28,22.06l7.65-7.64a6.26,6.26,0,0,1,8.87,0l0,0ZM55.13,66.26,90.39,31l12.12,12.11L67.21,78.34A6.26,6.26,0,0,1,64.48,80L49.11,84.34,53.5,69a6.36,6.36,0,0,1,1.6-2.73ZM98.05,5.54,46.19,57.33a18.87,18.87,0,0,0-4.81,8.17L33.87,91.77a6.3,6.3,0,0,0,4.33,7.8,6.2,6.2,0,0,0,3.47,0L68,92.06a19,19,0,0,0,8.17-4.81L128,35.45A18.93,18.93,0,0,0,128,8.7l-3.18-3.16A18.9,18.9,0,0,0,98.05,5.54ZM23.12,15.75A23.13,23.13,0,0,0,0,38.88v71.49a23.12,23.12,0,0,0,23.12,23.12H94.6a23.12,23.12,0,0,0,23.12-23.12h0V80.92a6.31,6.31,0,1,0-12.61-.39v29.84a10.48,10.48,0,0,1-10.48,10.48H23.12a10.48,10.48,0,0,1-10.48-10.48h0V38.88A10.49,10.49,0,0,1,23.12,28.39H52.56A6.31,6.31,0,1,0,53,15.78h-.39Z"/></g></g></g></svg>