<svg xmlns="http://www.w3.org/2000/svg" viewBox="0 0 170 170"><defs><style>.cls-1{fill:#037fff;}</style></defs><g id="Layer_2" data-name="Layer 2"><g id="Layer_1-2" data-name="Layer 1"><path class="cls-1" d="M114.22,0H162a8,8,0,0,1,8,8V55.78a8,8,0,0,1-13.61,5.65l-12.95-13L114.55,77.36a7.94,7.94,0,0,1-11.26,0L92.67,66.74a7.94,7.94,0,0,1,0-11.26L121.56,26.6l-13-13A8,8,0,0,1,114.22,0ZM55.78,170H8a8,8,0,0,1-8-8V114.22a8,8,0,0,1,13.61-5.65l13,13L55.45,92.64a7.94,7.94,0,0,1,11.26,0l10.62,10.62a7.94,7.94,0,0,1,0,11.26L48.44,143.4l13,12.95A8,8,0,0,1,55.75,170Z"/></g></g></svg>