<svg xmlns="http://www.w3.org/2000/svg" viewBox="0 0 112.43 130.39"><defs><style>.cls-1{fill:#949494;}</style></defs><g id="Layer_2" data-name="Layer 2"><g id="Layer_1-2" data-name="Layer 1"><path id="trash-can-regular" class="cls-1" d="M42.82,13.14l-4.75,7.24H74.39l-4.76-7.24A2,2,0,0,0,68,12.22H44.47a1.93,1.93,0,0,0-1.67.92ZM79.65,6.36l9.19,14h17.48a6.11,6.11,0,1,1,0,12.22h-2V110a20.2,20.2,0,0,1-20,20.38H28.16A20.21,20.21,0,0,1,8.12,110V32.59h-2a6.11,6.11,0,0,1,0-12.22H23.6l9.2-14A14,14,0,0,1,44.47,0H67.94A14,14,0,0,1,79.62,6.34ZM20.14,32.59V110a8.08,8.08,0,0,0,8,8.15H84.28a8.07,8.07,0,0,0,8-8.13V32.59Zm20,16.3v53a4,4,0,0,1-8,0h0v-53a4,4,0,1,1,8,0Zm20,0v53a4,4,0,1,1-8,0v-53a4,4,0,0,1,8,0Zm20,0v53a4,4,0,1,1-8,0v-53a4,4,0,1,1,8,0Z"/></g></g></svg>