<svg xmlns="http://www.w3.org/2000/svg" viewBox="0 0 45.68 45.68"><defs><style>.cls-1{fill:none;stroke:#037fff;stroke-miterlimit:10;stroke-width:2.3px;}.cls-2{fill:#037fff;}</style></defs><g id="Layer_2" data-name="Layer 2"><g id="Layer_1-2" data-name="Layer 1"><circle class="cls-1" cx="22.84" cy="22.84" r="21.69"/><path class="cls-2" d="M17.88,16.89a4,4,0,0,1,4-4h2a4,4,0,0,1,4,4v.22A4,4,0,0,1,26,20.45l-2.61,1.68a5.44,5.44,0,0,0-2.5,4.58v.09a2,2,0,1,0,4,0v-.08a1.49,1.49,0,0,1,.68-1.25l2.62-1.68a8,8,0,0,0,3.64-6.68v-.22A7.93,7.93,0,0,0,23.83,9h-2a7.93,7.93,0,0,0-7.93,7.93,2,2,0,1,0,4,0Zm5,19.83a2.48,2.48,0,1,0-2.48-2.48A2.48,2.48,0,0,0,22.84,36.72Z"/></g></g></svg>