<svg xmlns="http://www.w3.org/2000/svg" viewBox="0 0 115.52 115.52"><defs><style>.cls-1{fill:#17234c;isolation:isolate;opacity:0.79;}</style></defs><g id="Layer_2" data-name="Layer 2"><g id="Layer_1-2" data-name="Layer 1"><path id="circle-info-solid" class="cls-1" d="M57.76,115.52A57.76,57.76,0,1,0,0,57.76,57.76,57.76,0,0,0,57.76,115.52Zm-9-39.71h5.45V61.35H48.76a5.42,5.42,0,0,1,0-10.83H59.57A5.4,5.4,0,0,1,65,55.9V75.81H66.8a5.42,5.42,0,0,1,0,10.83H48.73a5.42,5.42,0,0,1,0-10.83Zm9-46.93a7.22,7.22,0,1,1-7.22,7.22,7.22,7.22,0,0,1,7.22-7.22Z"/></g></g></svg>