<svg xmlns="http://www.w3.org/2000/svg" xmlns:xlink="http://www.w3.org/1999/xlink" viewBox="0 0 199.58 199.69"><defs><style>.cls-1{fill:url(#linear-gradient);}.cls-2{fill:url(#linear-gradient-2);}</style><linearGradient id="linear-gradient" x1="-367.48" y1="1123.83" x2="-234.42" y2="1123.83" gradientTransform="translate(-234.42 1223.69) rotate(180)" gradientUnits="userSpaceOnUse"><stop offset="0" stop-color="#912cf6"/><stop offset="1" stop-color="#037fff"/></linearGradient><linearGradient id="linear-gradient-2" x1="-434" y1="1173.82" x2="-381.41" y2="1173.82" gradientTransform="translate(-234.42 1223.69) rotate(180)" gradientUnits="userSpaceOnUse"><stop offset="0.16" stop-color="#037fff"/><stop offset="0.29" stop-color="#1575fe"/><stop offset="0.54" stop-color="#435afb"/><stop offset="0.9" stop-color="#8c2ff6"/><stop offset="0.92" stop-color="#912cf6"/></linearGradient></defs><g id="Layer_2" data-name="Layer 2"><g id="Layer_1-2" data-name="Layer 1"><path id="Path_13" data-name="Path 13" class="cls-1" d="M68.67,116.72H16.08A15.66,15.66,0,0,1,0,101.47a15,15,0,0,1,.18-2.84A17.9,17.9,0,0,1,15.28,82.85a6.67,6.67,0,0,0,1.77-.39A15.86,15.86,0,0,1,4.92,68.09a17.37,17.37,0,0,1,9.41-17.18C7.39,39.72,8.18,34.48,18,25.3a39,39,0,0,1-2.51-6.14A16.15,16.15,0,0,1,27.71.54a20.67,20.67,0,0,1,4.7-.48C43.16.06,53.9,0,64.67.06q28.47.15,57,.41A11.28,11.28,0,0,1,133,11.59v.53q0,35.81.07,73.14a45.73,45.73,0,0,1-4.33,17.91,182.85,182.85,0,0,1-21.57,36.06c-4.18,5.76-8.6,11.36-13,17a37.14,37.14,0,0,0-8.6,22.85,66,66,0,0,1-.25,9.64A11.88,11.88,0,0,1,74,199.45a14.93,14.93,0,0,1-17.51-16.22c-.36-8-.64-15.87-.55-23.74a73.52,73.52,0,0,1,7-29.1C64.89,126,66.63,121.58,68.67,116.72Z"/><path id="Rectangle_18" data-name="Rectangle 18" class="cls-2" d="M173.29,99.74h0A26.29,26.29,0,0,1,147,73.44V26.29A26.29,26.29,0,0,1,173.29,0h0a26.29,26.29,0,0,1,26.29,26.29V73.44A26.29,26.29,0,0,1,173.29,99.74Z"/></g></g></svg>