<svg xmlns="http://www.w3.org/2000/svg" viewBox="0 0 92.5 92.5"><defs><style>.cls-1{fill:#fff;}</style></defs><g id="Layer_2" data-name="Layer 2"><g id="Layer_1-2" data-name="Layer 1"><path id="palette-solid" class="cls-1" d="M92.5,46.25v.49A11.92,11.92,0,0,1,79.83,57.81H62.15a8.67,8.67,0,0,0-8.67,8.67,9,9,0,0,0,.18,1.79,28.06,28.06,0,0,0,1.94,5.4,19.07,19.07,0,0,1,2.21,7.59,10.64,10.64,0,0,1-9.65,11.2c-.64,0-1.28,0-1.91,0A46.25,46.25,0,1,1,92.5,46.25ZM23.12,52a5.78,5.78,0,1,0-5.78,5.78A5.78,5.78,0,0,0,23.12,52Zm0-17.34a5.79,5.79,0,1,0-5.78-5.78A5.78,5.78,0,0,0,23.12,34.69ZM52,17.34a5.78,5.78,0,1,0-5.78,5.78A5.78,5.78,0,0,0,52,17.34ZM69.37,34.69a5.79,5.79,0,1,0-5.78-5.78A5.78,5.78,0,0,0,69.37,34.69Z"/></g></g></svg>