<svg xmlns="http://www.w3.org/2000/svg" viewBox="0 0 93.07 101.73"><defs><style>.cls-1{fill:#20b700;}</style></defs><g id="Layer_2" data-name="Layer 2"><g id="Layer_1-2" data-name="Layer 1"><g id="Layer_2-2" data-name="Layer 2"><g id="Layer_1-3" data-name="Layer 1"><path id="Path_12" data-name="Path 12" class="cls-1" d="M67.14.15a4.25,4.25,0,0,0-2.9,5.24l2.24,7.76A46.51,46.51,0,1,0,91.36,42.67,4.24,4.24,0,0,0,83.19,45h0A38.06,38.06,0,1,1,62.11,20.45L54.9,22.38A4.24,4.24,0,0,0,57,30.59l.1,0,17.47-4.68a4.27,4.27,0,0,0,2.57-2h0a4.21,4.21,0,0,0,.37-3.26L72.42,3.11A4.24,4.24,0,0,0,67.19.16h-.06Z"/></g></g></g></g></svg>