<svg xmlns="http://www.w3.org/2000/svg" viewBox="0 0 32.81 43.74"><defs><style>.cls-1{fill:#17234c;}.cls-2{fill:#037fff;}</style></defs><g id="Layer_2" data-name="Layer 2"><g id="Layer_1-2" data-name="Layer 1"><rect class="cls-1" x="3.14" y="19.27" width="24.29" height="20"/><path class="cls-2" d="M5.47,0A5.47,5.47,0,0,0,0,5.47V38.28a5.47,5.47,0,0,0,5.47,5.46H27.34a5.47,5.47,0,0,0,5.47-5.46V13.67H21.87a2.73,2.73,0,0,1-2.73-2.73V0Zm16.4,0V10.94H32.81ZM9.57,21.87H23.24a1.37,1.37,0,1,1,0,2.74H9.57a1.37,1.37,0,1,1,0-2.74Zm0,5.47H23.24a1.37,1.37,0,1,1,0,2.73H9.57a1.37,1.37,0,1,1,0-2.73Zm0,5.47H23.24a1.37,1.37,0,1,1,0,2.73H9.57a1.37,1.37,0,1,1,0-2.73Z"/></g></g></svg>