<svg xmlns="http://www.w3.org/2000/svg" viewBox="0 0 96.16 84.14"><defs><style>.cls-1{fill:#fff;}</style></defs><g id="Layer_2" data-name="Layer 2"><g id="Layer_1-2" data-name="Layer 1"><path id="right-from-bracket-solid" class="cls-1" d="M71,13.88,94,36.94a7.27,7.27,0,0,1,0,10.25L71,70.25A6.37,6.37,0,0,1,60.1,65.74V54.07h-24a6,6,0,0,1-6-6v-12a6,6,0,0,1,6-6H60.1V18.39A6.38,6.38,0,0,1,71,13.88ZM30.05,12H18a6,6,0,0,0-6,6h0V66.11a6,6,0,0,0,6,6h12a6,6,0,1,1,0,12H18a18,18,0,0,1-18-18V18A18,18,0,0,1,18,0h12a6,6,0,1,1,0,12Z"/></g></g></svg>