<svg xmlns="http://www.w3.org/2000/svg" viewBox="0 0 206.24 208.07"><defs><style>.cls-1{fill:#949494;}</style></defs><g id="Layer_2" data-name="Layer 2"><g id="Layer_1-2" data-name="Layer 1"><path id="settings" class="cls-1" d="M181.13,104a79.07,79.07,0,0,0-1.3-14.24l26.38-15.21-26-45.11L153.82,44.74a77.9,77.9,0,0,0-24.7-14.24V0h-52V30.46A77.88,77.88,0,0,0,52.4,44.69L26,29.48,0,74.56,26.38,89.8a78.74,78.74,0,0,0,0,28.47L0,133.52,26,178.6,52.4,163.36a77.88,77.88,0,0,0,24.7,14.23v30.48h52.05V177.62a78.16,78.16,0,0,0,24.69-14.24l26.39,15.25,26-45.08-26.4-15.28a79,79,0,0,0,1.3-14.23Zm-52,0a26,26,0,1,1-26-26h0a26,26,0,0,1,26.05,26v0Z"/></g></g></svg>