<svg xmlns="http://www.w3.org/2000/svg" viewBox="0 0 214.51 214.55"><defs><style>.cls-1{fill:#17234c;}</style></defs><g id="Layer_2" data-name="Layer 2"><g id="Layer_1-2" data-name="Layer 1"><path id="icons8-sun" class="cls-1" d="M107.14,0A7.66,7.66,0,0,0,99.6,7.76v23a7.66,7.66,0,1,0,15.32,0v-23A7.66,7.66,0,0,0,107.37,0h-.23ZM36.75,29.18a7.66,7.66,0,0,0-5.27,13.18l16.2,16.25A7.66,7.66,0,0,0,58.51,47.78h0L42.26,31.53A7.64,7.64,0,0,0,36.75,29.18Zm140.77,0a7.65,7.65,0,0,0-5.27,2.32L156,47.78a7.66,7.66,0,0,0,10.83,10.83h0l16.24-16.25a7.65,7.65,0,0,0-5.56-13.18ZM107.25,53.74a53.63,53.63,0,1,0,53.63,53.63h0A53.63,53.63,0,0,0,107.25,53.74ZM7.66,99.7a7.66,7.66,0,1,0,0,15.32h23a7.66,7.66,0,1,0,0-15.32h-23Zm176.2,0a7.66,7.66,0,1,0,0,15.32h23a7.66,7.66,0,1,0,0-15.32h-23Zm-130.92,54a7.65,7.65,0,0,0-5.27,2.32L31.43,172.36a7.66,7.66,0,0,0,10.83,10.83l16.25-16.25A7.65,7.65,0,0,0,53,153.76Zm108.41,0A7.65,7.65,0,0,0,156,166.91l16.25,16.26a7.66,7.66,0,1,0,10.83-10.84h0l-16.25-16.22a7.62,7.62,0,0,0-5.49-2.32Zm-54.21,22.41a7.66,7.66,0,0,0-7.54,7.76v23a7.66,7.66,0,1,0,15.32,0V184a7.65,7.65,0,0,0-7.55-7.76h-.22Z"/></g></g></svg>