<svg xmlns="http://www.w3.org/2000/svg" viewBox="0 0 199 199"><defs><style>.cls-1{fill:none;stroke:gray;stroke-miterlimit:10;stroke-width:10px;}.cls-2{fill:gray;}</style></defs><g id="Layer_2" data-name="Layer 2"><g id="Layer_1-2" data-name="Layer 1"><circle class="cls-1" cx="99.5" cy="99.5" r="94.5"/><path class="cls-2" d="M77.91,73.59A17.28,17.28,0,0,1,95.18,56.32h8.64a17.28,17.28,0,0,1,17.27,17.27v1a17.24,17.24,0,0,1-7.93,14.52L101.77,96.4a23.75,23.75,0,0,0-10.91,20v.4a8.64,8.64,0,1,0,17.28,0v-.37a6.5,6.5,0,0,1,3-5.46l11.39-7.31a34.61,34.61,0,0,0,15.87-29.07v-1A34.55,34.55,0,0,0,103.82,39H95.18A34.55,34.55,0,0,0,60.63,73.59a8.64,8.64,0,0,0,17.28,0ZM99.5,160a10.8,10.8,0,1,0-10.8-10.8A10.81,10.81,0,0,0,99.5,160Z"/></g></g></svg>