<svg xmlns="http://www.w3.org/2000/svg" xmlns:xlink="http://www.w3.org/1999/xlink" viewBox="0 0 126.76 104.36"><defs><style>.cls-1{fill:url(#linear-gradient);}.cls-2{fill:url(#linear-gradient-2);}</style><linearGradient id="linear-gradient" y1="52.18" x2="92.7" y2="52.18" gradientUnits="userSpaceOnUse"><stop offset="0" stop-color="#037fff"/><stop offset="1" stop-color="#912cf6"/></linearGradient><linearGradient id="linear-gradient-2" x1="103.58" y1="52.18" x2="126.76" y2="52.18" xlink:href="#linear-gradient"/></defs><g id="Layer_2" data-name="Layer 2"><g id="Layer_1-2" data-name="Layer 1"><path class="cls-1" d="M50.19,76.49H31.78l-5.48,27H10.66l5.34-27H0L2.91,61.14H19.05l3.84-19.2H6.54L9.46,26.73H26L31.21.85H46.85L41.73,26.73H60.14L65.33.85H81.11L75.92,26.73H92.7L89.86,41.94h-17L69,61.14H86.09L83.25,76.49H66l-5.4,27H44.79Zm3.7-14,4.48-21.83H37.89L33.48,62.49Z"/><path class="cls-2" d="M103.58,93.2a11.6,11.6,0,1,1,11.59,11.16A11.28,11.28,0,0,1,103.58,93.2ZM125.84,0l-1.71,68.82H106.22L104.51,0Z"/></g></g></svg>