<svg xmlns="http://www.w3.org/2000/svg" viewBox="0 0 88.8 103"><defs><style>.cls-1{fill:#f62c4d;}</style></defs><g id="Layer_2" data-name="Layer 2"><g id="Layer_1-2" data-name="Layer 1"><path id="trash-can-regular" class="cls-1" d="M33.82,10.38l-3.76,5.71H58.75L55,10.38a1.57,1.57,0,0,0-1.32-.72H35.14a1.53,1.53,0,0,0-1.32.72ZM62.91,5,70.18,16.1H84a4.83,4.83,0,0,1,0,9.65H82.4V86.91A16,16,0,0,1,66.57,103H22.24A16,16,0,0,1,6.42,86.91h0V25.74H4.82a4.83,4.83,0,0,1,0-9.66H18.63L25.9,5a11.07,11.07,0,0,1,9.24-5H53.68A11.08,11.08,0,0,1,62.9,5Zm-47,20.71V86.91a6.37,6.37,0,0,0,6.32,6.44H66.57a6.38,6.38,0,0,0,6.34-6.42V25.74ZM31.74,38.61V80.46a3.17,3.17,0,1,1-6.34,0h0V38.62a3.17,3.17,0,0,1,6.34,0h0Zm15.83,0V80.46a3.17,3.17,0,0,1-6.34,0h0V38.62a3.17,3.17,0,0,1,6.34,0h0Zm15.83,0V80.46a3.17,3.17,0,0,1-6.34,0h0V38.62a3.17,3.17,0,0,1,6.34,0h0Z"/></g></g></svg>