<svg id="Layer_1" data-name="Layer 1" xmlns="http://www.w3.org/2000/svg" xmlns:xlink="http://www.w3.org/1999/xlink" viewBox="0 0 1080 1080"><defs><style>.cls-1{fill:url(#linear-gradient);}.cls-2{fill:#fff;stroke:#fff;stroke-miterlimit:10;stroke-width:8.64px;}</style><linearGradient id="linear-gradient" x1="540" y1="975.56" x2="540" y2="104.44" gradientUnits="userSpaceOnUse"><stop offset="0.07" stop-color="#912cf6"/><stop offset="0.72" stop-color="#037fff"/></linearGradient></defs><path class="cls-1" d="M1008,502.77c0,220-209.54,398.33-468,398.33a546.45,546.45,0,0,1-121.41-13.54C261,1001.46,2.06,1001.28,163.25,907.26c51.09-29.8,70.84-65.54,72.49-101.82C135.51,732.37,72,623.89,72,502.77c0-220,209.54-398.33,468-398.33S1008,282.78,1008,502.77Z"/><path class="cls-2" d="M369.54,326.27a14.37,14.37,0,0,1,20.32.32c6.15,6.15,5.77,16.2-.34,22.4A211.3,211.3,0,0,0,394,650.07c6.42,6.14,7,16.44.7,22.71a14.35,14.35,0,0,1-20,.6,241.48,241.48,0,0,1-5.19-347.11Z"/><path class="cls-2" d="M690.48,349c-6.11-6.2-6.49-16.25-.34-22.4a14.37,14.37,0,0,1,20.32-.32,241.47,241.47,0,0,1-5.2,347.11,14.34,14.34,0,0,1-20-.6c-6.27-6.27-5.72-16.57.7-22.71A211.3,211.3,0,0,0,690.48,349Z"/><path class="cls-2" d="M423.23,379.3c5.51-5.45,14.33-5,19.81.46,6.28,6.28,5.66,16.59-.52,23a135.83,135.83,0,0,0,4.32,193.44c6.65,6.27,7.54,17,1.08,23.41a14,14,0,0,1-19.28.87,166,166,0,0,1-5.41-241.14Z"/><path class="cls-2" d="M637.48,402.72c-6.18-6.37-6.8-16.68-.51-23,5.47-5.48,14.29-5.91,19.8-.46a166,166,0,0,1-5.41,241.14,14,14,0,0,1-19.28-.87c-6.46-6.46-5.57-17.14,1.09-23.41a135.84,135.84,0,0,0,4.31-193.44Z"/><path class="cls-2" d="M540,459.58a37.73,37.73,0,1,0,37.73,37.73A37.73,37.73,0,0,0,540,459.58Z"/></svg>