<svg xmlns="http://www.w3.org/2000/svg" xmlns:xlink="http://www.w3.org/1999/xlink" viewBox="0 0 161.24 161.28"><defs><style>.cls-1{fill:url(#linear-gradient);}</style><linearGradient id="linear-gradient" y1="80.64" x2="161.24" y2="80.64" gradientUnits="userSpaceOnUse"><stop offset="0" stop-color="#037fff"/><stop offset="0.18" stop-color="#3363fc"/><stop offset="0.35" stop-color="#5b4bf9"/><stop offset="0.51" stop-color="#793af8"/><stop offset="0.65" stop-color="#8b30f6"/><stop offset="0.75" stop-color="#912cf6"/></linearGradient></defs><g id="Layer_2" data-name="Layer 2"><g id="Layer_1-2" data-name="Layer 1"><path class="cls-1" d="M30.23,65.51a65.37,65.37,0,0,0,12.59,38.64L3,144.06a10.09,10.09,0,0,0,14.27,14.26l39.87-39.9A65.52,65.52,0,1,0,30.23,65.51ZM128.49,61V81.18a7.56,7.56,0,0,1-15.12,0V61a7.56,7.56,0,0,1,15.12,0Zm-25.2-30.24V81.18a7.56,7.56,0,1,1-15.11,0V30.79a7.56,7.56,0,1,1,15.11,0ZM78.1,51V81.18a7.56,7.56,0,1,1-15.12,0V51A7.56,7.56,0,1,1,78.1,51ZM147.63,65.5A51.5,51.5,0,1,1,96.13,14,51.5,51.5,0,0,1,147.63,65.5Z"/></g></g></svg>