<svg xmlns="http://www.w3.org/2000/svg" xmlns:xlink="http://www.w3.org/1999/xlink" viewBox="0 0 131.61 131.61"><defs><style>.cls-1{fill:url(#linear-gradient);}.cls-2{fill:url(#linear-gradient-2);}.cls-3{fill:url(#linear-gradient-3);}.cls-4{fill:url(#linear-gradient-4);}.cls-5{fill:#fff;opacity:0.8;}</style><linearGradient id="linear-gradient" x1="65.8" y1="12.16" x2="65.8" y2="37.87" gradientUnits="userSpaceOnUse"><stop offset="0" stop-color="#b590f6"/><stop offset="1" stop-color="#912cf6"/></linearGradient><linearGradient id="linear-gradient-2" x1="65.8" y1="44.25" x2="65.8" y2="128.96" gradientUnits="userSpaceOnUse"><stop offset="0" stop-color="#50caff"/><stop offset="1" stop-color="#037fff"/></linearGradient><linearGradient id="linear-gradient-3" x1="33.34" y1="0.26" x2="32.54" y2="21.69" gradientUnits="userSpaceOnUse"><stop offset="0" stop-color="#dfe5e8"/><stop offset="1" stop-color="#c0d1d8"/></linearGradient><linearGradient id="linear-gradient-4" x1="99.05" y1="2.72" x2="98.25" y2="24.16" xlink:href="#linear-gradient-3"/></defs><g id="Layer_2" data-name="Layer 2"><g id="Layer_1-2" data-name="Layer 1"><path class="cls-1" d="M12.34,12H119.27A12.34,12.34,0,0,1,131.61,24.3V38.67a0,0,0,0,1,0,0H0a0,0,0,0,1,0,0V24.3A12.34,12.34,0,0,1,12.34,12Z"/><path class="cls-2" d="M0,43.61H131.61a0,0,0,0,1,0,0v75.66a12.34,12.34,0,0,1-12.34,12.34H12.34A12.34,12.34,0,0,1,0,119.27V43.61A0,0,0,0,1,0,43.61Z"/><rect class="cls-3" x="26.83" width="12.15" height="24.01" rx="6.07"/><rect class="cls-4" x="92.63" width="12.15" height="24.01" rx="6.07"/><rect class="cls-5" x="19.18" y="62.51" width="25.79" height="18.76" rx="5.76"/><rect class="cls-5" x="52.91" y="62.51" width="25.79" height="18.76" rx="5.76"/><rect class="cls-5" x="86.63" y="62.51" width="25.79" height="18.76" rx="5.76"/><rect class="cls-5" x="19.18" y="88.83" width="25.79" height="18.76" rx="5.76"/><rect class="cls-5" x="52.91" y="88.83" width="25.79" height="18.76" rx="5.76"/><rect class="cls-5" x="86.63" y="88.83" width="25.79" height="18.76" rx="5.76"/></g></g></svg>