<svg xmlns="http://www.w3.org/2000/svg" xmlns:xlink="http://www.w3.org/1999/xlink" viewBox="0 0 131.48 131.61"><defs><style>.cls-1{fill:url(#linear-gradient);}.cls-2{fill:#fff;opacity:0.8;}.cls-3{fill:url(#linear-gradient-2);}</style><linearGradient id="linear-gradient" x1="88.04" y1="55.48" x2="88.04" y2="127.09" gradientUnits="userSpaceOnUse"><stop offset="0" stop-color="#91c1f6"/><stop offset="1" stop-color="#912cf6"/></linearGradient><linearGradient id="linear-gradient-2" x1="40.12" y1="1.35" x2="40.12" y2="94.84" gradientUnits="userSpaceOnUse"><stop offset="0" stop-color="#50caff"/><stop offset="1" stop-color="#037fff"/></linearGradient></defs><g id="Layer_2" data-name="Layer 2"><g id="Layer_1-2" data-name="Layer 1"><path class="cls-1" d="M119.14,54.44H56.94A12.35,12.35,0,0,0,44.6,66.78v34a12.34,12.34,0,0,0,12.34,12.33H87.51l26,17.72a4.12,4.12,0,0,0,6.07-5.1l-5.73-12.62h5.32a12.33,12.33,0,0,0,12.34-12.33v-34A12.34,12.34,0,0,0,119.14,54.44Z"/><circle class="cls-2" cx="87.87" cy="83.01" r="7.24"/><circle class="cls-2" cx="112.55" cy="83.01" r="7.24"/><circle class="cls-2" cx="63.2" cy="83.01" r="7.24"/><path class="cls-3" d="M67.9,0H12.34A12.33,12.33,0,0,0,0,12.34V67.9A12.33,12.33,0,0,0,12.34,80.24h5.75L11.44,94.9A4.11,4.11,0,0,0,17.5,100l29-19.76H67.9A12.33,12.33,0,0,0,80.24,67.9V12.34A12.33,12.33,0,0,0,67.9,0Z"/><rect class="cls-2" x="8.82" y="17.94" width="62.97" height="8.84" rx="4.42"/><rect class="cls-2" x="8.82" y="36.04" width="62.97" height="8.84" rx="4.42"/><rect class="cls-2" x="8.82" y="54.14" width="44.25" height="8.84" rx="4.42"/></g></g></svg>