<svg xmlns="http://www.w3.org/2000/svg" xmlns:xlink="http://www.w3.org/1999/xlink" viewBox="0 0 113.99 113.99"><defs><style>.cls-1,.cls-2,.cls-3,.cls-4,.cls-5,.cls-6{fill:none;stroke-linecap:round;stroke-linejoin:round;stroke-width:11px;}.cls-1{stroke:url(#linear-gradient);}.cls-2{stroke:url(#linear-gradient-2);}.cls-3{stroke:url(#linear-gradient-3);}.cls-4{stroke:url(#linear-gradient-4);}.cls-5{stroke:url(#linear-gradient-5);}.cls-6{stroke:url(#linear-gradient-6);}</style><linearGradient id="linear-gradient" x1="28.09" y1="38.27" x2="48.45" y2="38.27" gradientUnits="userSpaceOnUse"><stop offset="0" stop-color="#037fff"/><stop offset="1" stop-color="#912cf6"/></linearGradient><linearGradient id="linear-gradient-2" x1="65.54" y1="38.27" x2="85.9" y2="38.27" xlink:href="#linear-gradient"/><linearGradient id="linear-gradient-3" x1="0" y1="57" x2="113.99" y2="57" xlink:href="#linear-gradient"/><linearGradient id="linear-gradient-4" x1="28.09" y1="66.36" x2="48.45" y2="66.36" xlink:href="#linear-gradient"/><linearGradient id="linear-gradient-5" x1="65.54" y1="66.36" x2="85.9" y2="66.36" xlink:href="#linear-gradient"/><linearGradient id="linear-gradient-6" x1="37.45" y1="64.01" x2="76.54" y2="64.01" xlink:href="#linear-gradient"/></defs><g id="Layer_2" data-name="Layer 2"><g id="Layer_1-2" data-name="Layer 1"><circle class="cls-1" cx="38.27" cy="38.27" r="4.68"/><circle class="cls-2" cx="75.72" cy="38.27" r="4.68"/><circle class="cls-3" cx="57" cy="57" r="51.5"/><path class="cls-4" d="M33.59,75.72a9.36,9.36,0,0,0,0-18.72"/><path class="cls-5" d="M80.4,57a9.36,9.36,0,1,0,0,18.72"/><path class="cls-6" d="M43,66.36a20.43,20.43,0,0,1,14-4.68A20.47,20.47,0,0,1,71,66.36"/></g></g></svg>