<svg xmlns="http://www.w3.org/2000/svg" xmlns:xlink="http://www.w3.org/1999/xlink" viewBox="0 0 171.42 171.42"><defs><style>.cls-1{fill:url(#linear-gradient);}.cls-2{fill:url(#linear-gradient-2);}</style><linearGradient id="linear-gradient" x1="85.71" y1="4.89" x2="85.71" y2="166.85" gradientUnits="userSpaceOnUse"><stop offset="0" stop-color="#50caff"/><stop offset="1" stop-color="#037fff"/></linearGradient><linearGradient id="linear-gradient-2" x1="90.43" y1="55.94" x2="90.43" y2="129.07" gradientUnits="userSpaceOnUse"><stop offset="0" stop-color="#c976f6"/><stop offset="1" stop-color="#912cf6"/></linearGradient></defs><g id="Layer_2" data-name="Layer 2"><g id="Layer_1-2" data-name="Layer 1"><path class="cls-1" d="M16.07,155.35V8A8,8,0,0,0,8,0H8A8,8,0,0,0,0,8V160.71a10.71,10.71,0,0,0,10.71,10.71H163.39a8,8,0,0,0,8-8h0a8,8,0,0,0-8-8Z"/><path class="cls-2" d="M140.46,54.46A10.4,10.4,0,0,0,131,69.23l-32.85,40.9a10.28,10.28,0,0,0-8.88.76L68.57,90.19a10.11,10.11,0,0,0,.34-2.59,10.42,10.42,0,0,0-20.83,0,10.57,10.57,0,0,0,.34,2.59L31.31,107.3a4.54,4.54,0,0,0,6.42,6.42L54.31,97.13a10.39,10.39,0,0,0,8.37,0l21.51,21.51a10.06,10.06,0,0,0-.08,1.24,10.42,10.42,0,0,0,20.83,0,10.57,10.57,0,0,0-.47-3.1L138,75a10.41,10.41,0,1,0,2.44-20.53Z"/></g></g></svg>