<svg xmlns="http://www.w3.org/2000/svg" xmlns:xlink="http://www.w3.org/1999/xlink" viewBox="0 0 199.58 199.69"><defs><style>.cls-1{fill:url(#linear-gradient);}.cls-2{fill:url(#linear-gradient-2);}</style><linearGradient id="linear-gradient" x1="66.52" y1="99.83" x2="199.58" y2="99.83" gradientUnits="userSpaceOnUse"><stop offset="0" stop-color="#912cf6"/><stop offset="1" stop-color="#037fff"/></linearGradient><linearGradient id="linear-gradient-2" y1="149.82" x2="52.59" y2="149.82" gradientUnits="userSpaceOnUse"><stop offset="0.16" stop-color="#037fff"/><stop offset="0.29" stop-color="#1575fe"/><stop offset="0.54" stop-color="#435afb"/><stop offset="0.9" stop-color="#8c2ff6"/><stop offset="0.92" stop-color="#912cf6"/></linearGradient></defs><g id="Layer_2" data-name="Layer 2"><g id="Layer_1-2" data-name="Layer 1"><path id="Path_13" data-name="Path 13" class="cls-1" d="M130.91,83H183.5a15.66,15.66,0,0,1,16.07,15.24,15.06,15.06,0,0,1-.18,2.85,17.89,17.89,0,0,1-15.09,15.77,7.1,7.1,0,0,0-1.77.4,15.86,15.86,0,0,1,12.13,14.37,17.37,17.37,0,0,1-9.41,17.18c6.94,11.18,6.15,16.43-3.69,25.61a39,39,0,0,1,2.51,6.14,16.15,16.15,0,0,1-12.2,18.62,20.67,20.67,0,0,1-4.7.48c-10.75,0-21.49.06-32.26,0q-28.47-.16-56.95-.41A11.27,11.27,0,0,1,66.59,188.1v-.54q0-35.79-.07-73.13a45.73,45.73,0,0,1,4.33-17.91A182.85,182.85,0,0,1,92.42,60.46c4.18-5.76,8.6-11.36,13-17A37.16,37.16,0,0,0,114,20.59a64.69,64.69,0,0,1,.25-9.64A11.87,11.87,0,0,1,125.59.24,14.93,14.93,0,0,1,143.1,16.46c.36,8,.64,15.87.55,23.74a73.69,73.69,0,0,1-7,29.1C134.69,73.68,133,78.11,130.91,83Z"/><path id="Rectangle_18" data-name="Rectangle 18" class="cls-2" d="M26.29,100h0a26.3,26.3,0,0,1,26.3,26.29V173.4a26.3,26.3,0,0,1-26.3,26.29h0A26.29,26.29,0,0,1,0,173.4V126.24A26.29,26.29,0,0,1,26.29,100Z"/></g></g></svg>